<?xml version="1.0" encoding="UTF-8"?>
<svg id="uuid-f1903d50-666d-4005-aca7-7f2275aa9542" data-name="Calque 1" xmlns="http://www.w3.org/2000/svg" xmlns:xlink="http://www.w3.org/1999/xlink" viewBox="0 0 406.35 193.86">
  <defs>
    <style>
      .uuid-8ccac1a6-f36e-466f-80c4-bf301149edb0 {
        fill: #ac7018;
      }

      .uuid-e027ab8f-c4ec-440c-a583-c3b76b25c1c2 {
        fill: #a4661d;
      }

      .uuid-268fa919-96d0-4495-b51a-d824433b20b7 {
        fill: #a5671d;
      }

      .uuid-be2ba7bf-0c98-4d28-8f95-f0f41095fbc2 {
        fill: #6c2a22;
      }

      .uuid-e929f7ff-84dc-4a5f-8c8e-43ed8752437a {
        fill: #8b4a24;
      }

      .uuid-1271081f-5eab-4ed8-ac00-70606f75474d {
        fill: #9f611f;
      }

      .uuid-44cf25f9-f9b6-400d-b32f-f1410fd2925b {
        fill: #a1641e;
      }

      .uuid-8b169c72-a996-4783-87fd-0c161d36bb6d {
        fill: #965722;
      }

      .uuid-29b83a5d-903b-4c71-b327-dc51e12e7ff9 {
        fill: #884724;
      }

      .uuid-3e7e93b5-8746-4d0d-8610-60dbfcb21d56 {
        fill: #7e3d24;
      }

      .uuid-e0801426-1cc9-4a4c-b24e-5f1ba7d2a80e {
        fill: #7d3c24;
      }

      .uuid-4c66c0f6-d586-4dbf-bb76-c36ccac980db {
        fill: #985921;
      }

      .uuid-70a0029a-107c-4635-980d-2cde56d26c38 {
        fill: #a3651d;
      }

      .uuid-ed649aa6-4c07-4b06-9115-255f45242b11 {
        fill: #ad7117;
      }

      .uuid-8203ef84-e2b9-4d25-af29-cd13035d5b52 {
        fill: #692722;
      }

      .uuid-aa4802ed-be20-4727-9de8-8eb99b468388 {
        fill: #6b2922;
      }

      .uuid-1296a604-aaf2-40aa-b580-f931ad85dc22 {
        fill: #7f3d24;
      }

      .uuid-808725f2-34d9-4fa7-a26f-ff14b890acce {
        fill: #955622;
      }

      .uuid-0b1bca2f-e8d0-4f8a-a32d-6eb693c0d510 {
        fill: #652321;
      }

      .uuid-c0c08216-f913-4277-bb66-f06055b38637 {
        clip-path: url(#uuid-376f9670-5c60-4393-98c2-d6d3095bb32b);
      }

      .uuid-cc1c97f6-4ba6-4f91-81a0-653e9391bdcc {
        fill: #632120;
      }

      .uuid-602ee9f4-c6ea-4502-b17c-0b1217303797 {
        fill: #844324;
      }

      .uuid-49ab3d84-fbd2-45a8-a64b-bd1e1a30f55f {
        fill: #6f2d23;
      }

      .uuid-608d0237-8be6-42b6-b5df-a8745d0f55f8 {
        fill: #9d5f20;
      }

      .uuid-499b4b78-7d90-4b62-a829-a0a6cd87b530 {
        fill: #a1631e;
      }

      .uuid-cbd09c58-ad4d-4b97-b312-ddd2083257a5 {
        fill: #6f2d22;
      }

      .uuid-998d775d-4358-45b8-bf69-19221cb5edfa {
        fill: #b17613;
      }

      .uuid-7fdf9ce3-4be3-4b40-95a4-8354a0087360 {
        fill: #8e4e23;
      }

      .uuid-6f527c27-f13b-4c5d-ae37-2620df4bdf77 {
        fill: #7a3824;
      }

      .uuid-9ec2c291-69ef-4c41-ab5a-55d1e9da26a9 {
        fill: #6a2822;
      }

      .uuid-98219c6c-f465-455c-b290-4d1a3e9499af {
        fill: #935322;
      }

      .uuid-af998493-6340-451e-bf72-e4a024b5b8d0 {
        clip-path: url(#uuid-280e2281-748c-4786-8934-8c5ed7640851);
      }

      .uuid-6b3673e1-36d1-498f-bfe2-327a7b160e5f {
        fill: none;
      }

      .uuid-068e6ff6-313c-46b6-bda0-7c5892dab005 {
        fill: #8c4b24;
      }

      .uuid-f46c42df-eae7-4db8-8b45-2f6a92d79b20 {
        fill: #622020;
      }

      .uuid-c0e24850-6f2f-428c-9243-d1604078fce0 {
        fill: #894824;
      }

      .uuid-336d32a9-980e-46c7-94a3-c3cab899e6b3 {
        fill: #8d4d23;
      }

      .uuid-565bb014-99c2-464d-b7d5-5608a2f8854e {
        fill: #9c5d20;
      }

      .uuid-e2ae71f3-21fd-484d-a3b7-59feb4b271e0 {
        fill: #662421;
      }

      .uuid-348c3b46-3a9b-4b7b-8d6b-a389a13a6ee9 {
        fill: #af7415;
      }

      .uuid-0a6204c6-e6a6-4e5c-affe-fbfdcbe488b7 {
        fill: #6d2b22;
      }

      .uuid-bbba43d7-e4cc-4eb3-afcd-4bc716ca864e {
        fill: #642221;
      }

      .uuid-ab2cc95a-9284-41e9-9c17-8bbab70c2109 {
        fill: #6e2c22;
      }

      .uuid-faf9cc1f-b9d7-4d27-936b-8e6f73706846 {
        fill: #682621;
      }

      .uuid-c432783b-615a-4646-8842-94165553699d {
        fill: #834124;
      }

      .uuid-4354654c-8433-4421-8b2c-be572148f216 {
        fill: #8f4f23;
      }

      .uuid-f29c3d96-edb4-434d-b79a-d7d287650e16 {
        fill: #733123;
      }

      .uuid-7c3f0528-5cf9-4647-9f72-6227b6b05ed9 {
        fill: #995a21;
      }

      .uuid-64248b67-128e-45c4-bc9e-d179176770ae {
        fill: #723023;
      }

      .uuid-a6fbc989-ef02-4a29-a3fc-319b3938110a {
        fill: #834224;
      }

      .uuid-248dd1d8-e025-4838-a924-a8efe0fe94cb {
        fill: #b07514;
      }

      .uuid-88df01fb-21cb-4e56-bdeb-68713429ee66 {
        fill: #9e601f;
      }

      .uuid-2d75d0fe-8b90-4406-a7fb-07e08fd122d4 {
        fill: #a86b1b;
      }

      .uuid-4036ceb6-4e99-46f9-b582-fb3b5c27f2d4 {
        fill: #9a5b21;
      }

      .uuid-0bcb058d-465b-43f4-9c3b-7b5ccf539d49 {
        fill: #8a4a24;
      }

      .uuid-4dca83ac-afcb-44d3-a767-f5fab653f2cd {
        fill: #975822;
      }

      .uuid-d240f4e7-fd42-4854-a444-8bbe50e46b1d {
        fill: #743223;
      }

      .uuid-456767fc-ed59-477f-b991-984f510c9084 {
        fill: #af7316;
      }

      .uuid-141035d3-9d13-4d14-b0a2-a58693495ccb {
        fill: #814024;
      }

      .uuid-c764a588-1aae-4c5d-b128-ca14ce160f07 {
        fill: #a0621f;
      }

      .uuid-9cadde1c-d561-479d-b1cf-401554bc68d1 {
        fill: #702e23;
      }

      .uuid-fc80d61b-1af0-4539-83ff-4915c0cc2340 {
        fill: #905023;
      }

      .uuid-6b314968-ef28-466e-b660-012ffbdda94f {
        fill: #ab6f19;
      }

      .uuid-37763401-d740-42bc-a03f-a75ec4a3da28 {
        fill: #945422;
      }

      .uuid-8edc8473-d874-4657-a5bb-2a58761e87a9 {
        fill: #915123;
      }

      .uuid-62ff9bb4-ebfb-4b9a-8947-125b3db91a89 {
        fill: #783624;
      }

      .uuid-3f0edad7-fbce-46f7-afdf-9951d0c2a8bb {
        fill: #ae7216;
      }

      .uuid-81d5f993-4f66-4cbe-9b08-0f48992b9609 {
        fill: #7b3924;
      }

      .uuid-4fc43485-e0c2-463a-941e-28d48b78ca2d {
        fill: #723123;
      }

      .uuid-407211da-c56f-4112-9282-9609c3280b3c {
        fill: #753323;
      }

      .uuid-a5ba344c-e5f0-49be-b204-cb072e9d4274 {
        fill: #7c3b24;
      }

      .uuid-685350b2-40ca-4362-b1f8-ca20999f626f {
        fill: #945522;
      }

      .uuid-adf424ad-6296-47a8-9cce-a1fe1ee12aa5 {
        fill: #8d4c24;
      }

      .uuid-511896e0-ff34-420f-9b21-9ed03403332f {
        fill: #a96c1a;
      }

      .uuid-a87cf711-cd62-4e87-b367-6b6130218bca {
        fill: #793824;
      }

      .uuid-89153726-2722-48e1-926a-5bdf85d309f9 {
        fill: #632220;
      }

      .uuid-14d8f52b-e734-4ee5-8bd6-a7d094a26848 {
        fill: #773524;
      }

      .uuid-6d62460a-df7d-4fc5-a61e-b6f0040f5309 {
        fill: #a76a1b;
      }

      .uuid-347f4f21-4005-426b-bd9f-96695b381670 {
        fill: #824124;
      }

      .uuid-05e9a5c4-0ccf-4cc9-b6bb-f997752b9a03 {
        fill: #803e24;
      }

      .uuid-49fc06a4-482e-4e4d-8770-0fa909835c7b {
        fill: #a6691c;
      }

      .uuid-9bf481a5-fcb7-4d50-8891-463b0a9d36b6 {
        clip-path: url(#uuid-bd86a30c-7ef0-4a95-bc92-a8caa8b203f8);
      }

      .uuid-a788a848-89ec-4aba-8ca7-252345052c1e {
        fill: #8a4924;
      }

      .uuid-46ece291-9170-4248-bf46-87d0a80209dd {
        fill: #9c5e20;
      }

      .uuid-efef7a0c-5ea8-415e-ae01-6d29341a276e {
        fill: #753423;
      }

      .uuid-473e00da-7209-49f0-8d21-acb618214fb1 {
        fill: #793724;
      }

      .uuid-91092e0f-d498-4ce3-93b5-514e6e990015 {
        fill: #612020;
      }

      .uuid-6c930d86-2d9d-404e-ae13-3db12b72f6d0 {
        fill: #874624;
      }

      .uuid-fd250cd9-eedf-43ce-8e8d-2db1df15a8e4 {
        fill: #7c3a24;
      }

      .uuid-b4f82316-ed7c-4df4-b292-c2554332eef7 {
        fill: #611f20;
      }

      .uuid-42630f4b-1b15-436b-85d6-970bd074e553 {
        fill: #9b5c20;
      }

      .uuid-2c22798b-6ee2-40e7-a07f-54f686ddf4f3 {
        fill: #803f24;
      }

      .uuid-659a642a-34f6-4935-b289-a77148328e68 {
        fill: #864524;
      }

      .uuid-7197ad0d-e33f-4780-85c1-f9d5964110a8 {
        fill: #854424;
      }

      .uuid-5f280bd5-6500-49f6-9170-cdaccc27fd5f {
        fill: #aa6d1a;
      }

      .uuid-10860889-2a34-4391-8d76-247a07119ec6 {
        fill: #763423;
      }

      .uuid-3c8b27fe-101a-4b0b-a0cb-4bbe6e4dfdb3 {
        fill: #925223;
      }

      .uuid-7385f262-3428-4f92-9ccb-389c8b7a87c6 {
        fill: #a6681c;
      }

      .uuid-97d80289-f6bd-4da2-b622-d07f19ae349a {
        fill: #712f23;
      }

      .uuid-16984722-82f7-4dfd-b0ae-d858e396836c {
        fill: #a2651e;
      }

      .uuid-a4b97d29-5da0-4168-87b7-bac7919ccdae {
        fill: #ab6e19;
      }

      .uuid-f6b1258c-8bc9-427e-90f6-74430f5fa829 {
        fill: #672521;
      }
    </style>
    <clipPath id="uuid-bd86a30c-7ef0-4a95-bc92-a8caa8b203f8">
      <path class="uuid-6b3673e1-36d1-498f-bfe2-327a7b160e5f" d="M61.89,59.66c.22.14.46,3,.8,3.74,4.6,10.13,7.55,21.34,13.12,31.26,17.73,31.6,50.89,60.91,85.05,71.44,3.31,1.02,7.67.68,10.69,1.4,6.66,1.61,11.67,3.94,19.55,4.32,49.04,2.37,92.5-14.87,123.27-53.22,11.57-14.42,22.4-32.01,27.55-49.43.67-2.26.81-5.65,1.49-8.08h62.64c-.16,1.44.3,3.17-.02,4.53-.12.51-1.22.44-1.37,1.04-10.4,41.95-42.07,70.27-80.18,90.03-18.93,9.81-37.67,16.27-59.01,20.89-75.07,16.27-153.38,5.27-215.39-39.63-16.72-13.62-31.73-29.94-41.42-48.68C6.13,84.38.19,68.35.03,62.8,0,61.63.53,60.75.69,59.66h61.2Z"/>
    </clipPath>
    <clipPath id="uuid-280e2281-748c-4786-8934-8c5ed7640851">
      <path class="uuid-6b3673e1-36d1-498f-bfe2-327a7b160e5f" d="M190.77,0v126.86c0,1.14,2.97,7.43,3.81,8.06,2.88,2.14,12.81,2.17,15.85.25.91-.57,4.12-5.68,4.35-7.02.16-.33,1.2-.14,1.2-.2V0h56.88c-.47,4.63.62,10.31.06,14.78-.17,1.37-1.38.68-1.55,2.06-.88,6.94.38,16.42.09,23.8-1.01,25.38-7.86,67.88-24.27,87.22-4.28,5.05-16.27,15.47-21.66,17.29-32.32,10.92-64.82-2.35-76.58-34.59-9.96-18.08-10.28-37.7-12.83-58.49-.17-1.37-1.38-.68-1.55-2.06-1.34-10.54.67-23.81-.61-33.88-.17-1.37-1.38-.68-1.55-2.06-.54-4.25.51-9.66.06-14.06h58.32Z"/>
    </clipPath>
    <clipPath id="uuid-376f9670-5c60-4393-98c2-d6d3095bb32b">
      <path class="uuid-6b3673e1-36d1-498f-bfe2-327a7b160e5f" d="M126.69,30.19l.66,19.81c2.57,11.1,3.74,23.53,6.48,34.64,6.16,24.93,13.06,49.29,38.37,62.05,6.4,3.23,8.62,3.18,15.16,5.01.6.17.49,1.27,1.01,1.39,5.16,1.17,22.67,1.18,27.81,0,.53-.12.41-1.22,1.01-1.39,1.8-.5,4.83-.22,6.85-.81,22.21-6.56,36.49-26.35,43.7-47.21,5.48-15.85,6.79-32.29,10.2-48.64l.66-24.13h61.2c.74,2.28-1.33,1.75-1.5,3.19-.35,3.1.32,6.85.05,10.1-.78,9.26-3.57,21.59-6.54,29.99-11.18,31.65-36.99,61.26-67.44,76.72-10.24,5.2-18.65,7.69-29.87,10.87-53.92,15.28-109.64-9.37-143.13-53.03-8.41-13.57-16.16-27.79-20.9-42.95-2.35-7.5-1.94-15.05-3.56-22.18-.13-.57-1.31-.19-1.48-1.52-.47-3.58.46-8.19.06-11.91h61.2Z"/>
    </clipPath>
  </defs>
  <g class="uuid-9bf481a5-fcb7-4d50-8891-463b0a9d36b6">
    <rect class="uuid-b4f82316-ed7c-4df4-b292-c2554332eef7" y="59.66" width=".03" height="134.2"/>
    <rect class="uuid-b4f82316-ed7c-4df4-b292-c2554332eef7" x=".03" y="59.66" width="3.12" height="134.2"/>
    <rect class="uuid-91092e0f-d498-4ce3-93b5-514e6e990015" x="3.15" y="59.66" width="3.12" height="134.2"/>
    <rect class="uuid-f46c42df-eae7-4db8-8b45-2f6a92d79b20" x="6.27" y="59.66" width="3.12" height="134.2"/>
    <rect class="uuid-cc1c97f6-4ba6-4f91-81a0-653e9391bdcc" x="9.39" y="59.66" width="3.12" height="134.2"/>
    <rect class="uuid-89153726-2722-48e1-926a-5bdf85d309f9" x="12.51" y="59.66" width="3.12" height="134.2"/>
    <rect class="uuid-bbba43d7-e4cc-4eb3-afcd-4bc716ca864e" x="15.63" y="59.66" width="3.12" height="134.2"/>
    <rect class="uuid-0b1bca2f-e8d0-4f8a-a32d-6eb693c0d510" x="18.75" y="59.66" width="3.12" height="134.2"/>
    <rect class="uuid-e2ae71f3-21fd-484d-a3b7-59feb4b271e0" x="21.87" y="59.66" width="3.12" height="134.2"/>
    <rect class="uuid-e2ae71f3-21fd-484d-a3b7-59feb4b271e0" x="24.99" y="59.66" width="3.12" height="134.2"/>
    <rect class="uuid-f6b1258c-8bc9-427e-90f6-74430f5fa829" x="28.11" y="59.66" width="3.12" height="134.2"/>
    <rect class="uuid-faf9cc1f-b9d7-4d27-936b-8e6f73706846" x="31.22" y="59.66" width="3.12" height="134.2"/>
    <rect class="uuid-faf9cc1f-b9d7-4d27-936b-8e6f73706846" x="34.34" y="59.66" width="3.12" height="134.2"/>
    <rect class="uuid-8203ef84-e2b9-4d25-af29-cd13035d5b52" x="37.46" y="59.66" width="3.12" height="134.2"/>
    <rect class="uuid-9ec2c291-69ef-4c41-ab5a-55d1e9da26a9" x="40.58" y="59.66" width="3.12" height="134.2"/>
    <rect class="uuid-9ec2c291-69ef-4c41-ab5a-55d1e9da26a9" x="43.7" y="59.66" width="3.12" height="134.2"/>
    <rect class="uuid-aa4802ed-be20-4727-9de8-8eb99b468388" x="46.82" y="59.66" width="3.12" height="134.2"/>
    <rect class="uuid-be2ba7bf-0c98-4d28-8f95-f0f41095fbc2" x="49.94" y="59.66" width="3.12" height="134.2"/>
    <rect class="uuid-0a6204c6-e6a6-4e5c-affe-fbfdcbe488b7" x="53.06" y="59.66" width="3.12" height="134.2"/>
    <rect class="uuid-0a6204c6-e6a6-4e5c-affe-fbfdcbe488b7" x="56.18" y="59.66" width="3.12" height="134.2"/>
    <rect class="uuid-ab2cc95a-9284-41e9-9c17-8bbab70c2109" x="59.3" y="59.66" width="3.12" height="134.2"/>
    <rect class="uuid-cbd09c58-ad4d-4b97-b312-ddd2083257a5" x="62.42" y="59.66" width="3.12" height="134.2"/>
    <rect class="uuid-49ab3d84-fbd2-45a8-a64b-bd1e1a30f55f" x="65.54" y="59.66" width="3.12" height="134.2"/>
    <rect class="uuid-9cadde1c-d561-479d-b1cf-401554bc68d1" x="68.66" y="59.66" width="3.12" height="134.2"/>
    <rect class="uuid-97d80289-f6bd-4da2-b622-d07f19ae349a" x="71.78" y="59.66" width="3.12" height="134.2"/>
    <rect class="uuid-64248b67-128e-45c4-bc9e-d179176770ae" x="74.9" y="59.66" width="3.12" height="134.2"/>
    <rect class="uuid-4fc43485-e0c2-463a-941e-28d48b78ca2d" x="78.02" y="59.66" width="3.12" height="134.2"/>
    <rect class="uuid-f29c3d96-edb4-434d-b79a-d7d287650e16" x="81.13" y="59.66" width="3.12" height="134.2"/>
    <rect class="uuid-d240f4e7-fd42-4854-a444-8bbe50e46b1d" x="84.25" y="59.66" width="3.12" height="134.2"/>
    <rect class="uuid-407211da-c56f-4112-9282-9609c3280b3c" x="87.37" y="59.66" width="3.12" height="134.2"/>
    <rect class="uuid-efef7a0c-5ea8-415e-ae01-6d29341a276e" x="90.49" y="59.66" width="3.12" height="134.2"/>
    <rect class="uuid-10860889-2a34-4391-8d76-247a07119ec6" x="93.61" y="59.66" width="3.12" height="134.2"/>
    <rect class="uuid-14d8f52b-e734-4ee5-8bd6-a7d094a26848" x="96.73" y="59.66" width="3.12" height="134.2"/>
    <rect class="uuid-62ff9bb4-ebfb-4b9a-8947-125b3db91a89" x="99.85" y="59.66" width="3.12" height="134.2"/>
    <rect class="uuid-473e00da-7209-49f0-8d21-acb618214fb1" x="102.97" y="59.66" width="3.12" height="134.2"/>
    <rect class="uuid-a87cf711-cd62-4e87-b367-6b6130218bca" x="106.09" y="59.66" width="3.12" height="134.2"/>
    <rect class="uuid-6f527c27-f13b-4c5d-ae37-2620df4bdf77" x="109.21" y="59.66" width="3.12" height="134.2"/>
    <rect class="uuid-81d5f993-4f66-4cbe-9b08-0f48992b9609" x="112.33" y="59.66" width="3.12" height="134.2"/>
    <rect class="uuid-fd250cd9-eedf-43ce-8e8d-2db1df15a8e4" x="115.45" y="59.66" width="3.12" height="134.2"/>
    <rect class="uuid-a5ba344c-e5f0-49be-b204-cb072e9d4274" x="118.57" y="59.66" width="3.12" height="134.2"/>
    <rect class="uuid-e0801426-1cc9-4a4c-b24e-5f1ba7d2a80e" x="121.69" y="59.66" width="3.12" height="134.2"/>
    <rect class="uuid-3e7e93b5-8746-4d0d-8610-60dbfcb21d56" x="124.81" y="59.66" width="3.12" height="134.2"/>
    <rect class="uuid-1296a604-aaf2-40aa-b580-f931ad85dc22" x="127.93" y="59.66" width="3.12" height="134.2"/>
    <rect class="uuid-05e9a5c4-0ccf-4cc9-b6bb-f997752b9a03" x="131.04" y="59.66" width="3.12" height="134.2"/>
    <rect class="uuid-2c22798b-6ee2-40e7-a07f-54f686ddf4f3" x="134.16" y="59.66" width="3.12" height="134.2"/>
    <rect class="uuid-141035d3-9d13-4d14-b0a2-a58693495ccb" x="137.28" y="59.66" width="3.12" height="134.2"/>
    <rect class="uuid-347f4f21-4005-426b-bd9f-96695b381670" x="140.4" y="59.66" width="3.12" height="134.2"/>
    <rect class="uuid-c432783b-615a-4646-8842-94165553699d" x="143.52" y="59.66" width="3.12" height="134.2"/>
    <rect class="uuid-a6fbc989-ef02-4a29-a3fc-319b3938110a" x="146.64" y="59.66" width="3.12" height="134.2"/>
    <rect class="uuid-602ee9f4-c6ea-4502-b17c-0b1217303797" x="149.76" y="59.66" width="3.12" height="134.2"/>
    <rect class="uuid-7197ad0d-e33f-4780-85c1-f9d5964110a8" x="152.88" y="59.66" width="3.12" height="134.2"/>
    <rect class="uuid-659a642a-34f6-4935-b289-a77148328e68" x="156" y="59.66" width="3.12" height="134.2"/>
    <rect class="uuid-659a642a-34f6-4935-b289-a77148328e68" x="159.12" y="59.66" width="3.12" height="134.2"/>
    <rect class="uuid-6c930d86-2d9d-404e-ae13-3db12b72f6d0" x="162.24" y="59.66" width="3.12" height="134.2"/>
    <rect class="uuid-29b83a5d-903b-4c71-b327-dc51e12e7ff9" x="165.36" y="59.66" width="3.12" height="134.2"/>
    <rect class="uuid-c0e24850-6f2f-428c-9243-d1604078fce0" x="168.48" y="59.66" width="3.12" height="134.2"/>
    <rect class="uuid-a788a848-89ec-4aba-8ca7-252345052c1e" x="171.6" y="59.66" width="3.12" height="134.2"/>
    <rect class="uuid-0bcb058d-465b-43f4-9c3b-7b5ccf539d49" x="174.72" y="59.66" width="3.12" height="134.2"/>
    <rect class="uuid-e929f7ff-84dc-4a5f-8c8e-43ed8752437a" x="177.84" y="59.66" width="3.12" height="134.2"/>
    <rect class="uuid-068e6ff6-313c-46b6-bda0-7c5892dab005" x="180.95" y="59.66" width="3.12" height="134.2"/>
    <rect class="uuid-adf424ad-6296-47a8-9cce-a1fe1ee12aa5" x="184.07" y="59.66" width="3.12" height="134.2"/>
    <rect class="uuid-336d32a9-980e-46c7-94a3-c3cab899e6b3" x="187.19" y="59.66" width="3.12" height="134.2"/>
    <rect class="uuid-7fdf9ce3-4be3-4b40-95a4-8354a0087360" x="190.31" y="59.66" width="3.12" height="134.2"/>
    <rect class="uuid-4354654c-8433-4421-8b2c-be572148f216" x="193.43" y="59.66" width="3.12" height="134.2"/>
    <rect class="uuid-fc80d61b-1af0-4539-83ff-4915c0cc2340" x="196.55" y="59.66" width="3.12" height="134.2"/>
    <rect class="uuid-fc80d61b-1af0-4539-83ff-4915c0cc2340" x="199.67" y="59.66" width="3.12" height="134.2"/>
    <rect class="uuid-8edc8473-d874-4657-a5bb-2a58761e87a9" x="202.79" y="59.66" width="3.12" height="134.2"/>
    <rect class="uuid-3c8b27fe-101a-4b0b-a0cb-4bbe6e4dfdb3" x="205.91" y="59.66" width="3.12" height="134.2"/>
    <rect class="uuid-98219c6c-f465-455c-b290-4d1a3e9499af" x="209.03" y="59.66" width="3.12" height="134.2"/>
    <rect class="uuid-37763401-d740-42bc-a03f-a75ec4a3da28" x="212.15" y="59.66" width="3.12" height="134.2"/>
    <rect class="uuid-685350b2-40ca-4362-b1f8-ca20999f626f" x="215.27" y="59.66" width="3.12" height="134.2"/>
    <rect class="uuid-808725f2-34d9-4fa7-a26f-ff14b890acce" x="218.39" y="59.66" width="3.12" height="134.2"/>
    <rect class="uuid-8b169c72-a996-4783-87fd-0c161d36bb6d" x="221.51" y="59.66" width="3.12" height="134.2"/>
    <rect class="uuid-4dca83ac-afcb-44d3-a767-f5fab653f2cd" x="224.63" y="59.66" width="3.12" height="134.2"/>
    <rect class="uuid-4c66c0f6-d586-4dbf-bb76-c36ccac980db" x="227.75" y="59.66" width="3.12" height="134.2"/>
    <rect class="uuid-4c66c0f6-d586-4dbf-bb76-c36ccac980db" x="230.86" y="59.66" width="3.12" height="134.2"/>
    <rect class="uuid-7c3f0528-5cf9-4647-9f72-6227b6b05ed9" x="233.98" y="59.66" width="3.12" height="134.2"/>
    <rect class="uuid-4036ceb6-4e99-46f9-b582-fb3b5c27f2d4" x="237.1" y="59.66" width="3.12" height="134.2"/>
    <rect class="uuid-42630f4b-1b15-436b-85d6-970bd074e553" x="240.22" y="59.66" width="3.12" height="134.2"/>
    <rect class="uuid-565bb014-99c2-464d-b7d5-5608a2f8854e" x="243.34" y="59.66" width="3.12" height="134.2"/>
    <rect class="uuid-46ece291-9170-4248-bf46-87d0a80209dd" x="246.46" y="59.66" width="3.12" height="134.2"/>
    <rect class="uuid-608d0237-8be6-42b6-b5df-a8745d0f55f8" x="249.58" y="59.66" width="3.12" height="134.2"/>
    <rect class="uuid-88df01fb-21cb-4e56-bdeb-68713429ee66" x="252.7" y="59.66" width="3.12" height="134.2"/>
    <rect class="uuid-1271081f-5eab-4ed8-ac00-70606f75474d" x="255.82" y="59.66" width="3.12" height="134.2"/>
    <rect class="uuid-c764a588-1aae-4c5d-b128-ca14ce160f07" x="258.94" y="59.66" width="3.12" height="134.2"/>
    <rect class="uuid-499b4b78-7d90-4b62-a829-a0a6cd87b530" x="262.06" y="59.66" width="3.12" height="134.2"/>
    <rect class="uuid-44cf25f9-f9b6-400d-b32f-f1410fd2925b" x="265.18" y="59.66" width="3.12" height="134.2"/>
    <rect class="uuid-16984722-82f7-4dfd-b0ae-d858e396836c" x="268.3" y="59.66" width="3.12" height="134.2"/>
    <rect class="uuid-70a0029a-107c-4635-980d-2cde56d26c38" x="271.42" y="59.66" width="3.12" height="134.2"/>
    <rect class="uuid-e027ab8f-c4ec-440c-a583-c3b76b25c1c2" x="274.54" y="59.66" width="3.12" height="134.2"/>
    <rect class="uuid-268fa919-96d0-4495-b51a-d824433b20b7" x="277.66" y="59.66" width="3.12" height="134.2"/>
    <rect class="uuid-7385f262-3428-4f92-9ccb-389c8b7a87c6" x="280.77" y="59.66" width="3.12" height="134.2"/>
    <rect class="uuid-49fc06a4-482e-4e4d-8770-0fa909835c7b" x="283.89" y="59.66" width="3.12" height="134.2"/>
    <rect class="uuid-6d62460a-df7d-4fc5-a61e-b6f0040f5309" x="287.01" y="59.66" width="3.12" height="134.2"/>
    <rect class="uuid-2d75d0fe-8b90-4406-a7fb-07e08fd122d4" x="290.13" y="59.66" width="3.12" height="134.2"/>
    <rect class="uuid-511896e0-ff34-420f-9b21-9ed03403332f" x="293.25" y="59.66" width="3.12" height="134.2"/>
    <rect class="uuid-5f280bd5-6500-49f6-9170-cdaccc27fd5f" x="296.37" y="59.66" width="3.12" height="134.2"/>
    <rect class="uuid-a4b97d29-5da0-4168-87b7-bac7919ccdae" x="299.49" y="59.66" width="3.12" height="134.2"/>
    <rect class="uuid-6b314968-ef28-466e-b660-012ffbdda94f" x="302.61" y="59.66" width="3.12" height="134.2"/>
    <rect class="uuid-8ccac1a6-f36e-466f-80c4-bf301149edb0" x="305.73" y="59.66" width="3.12" height="134.2"/>
    <rect class="uuid-ed649aa6-4c07-4b06-9115-255f45242b11" x="308.85" y="59.66" width="3.12" height="134.2"/>
    <rect class="uuid-3f0edad7-fbce-46f7-afdf-9951d0c2a8bb" x="311.97" y="59.66" width="3.12" height="134.2"/>
    <rect class="uuid-456767fc-ed59-477f-b991-984f510c9084" x="315.09" y="59.66" width="3.12" height="134.2"/>
    <rect class="uuid-348c3b46-3a9b-4b7b-8d6b-a389a13a6ee9" x="318.21" y="59.66" width="3.12" height="134.2"/>
    <rect class="uuid-248dd1d8-e025-4838-a924-a8efe0fe94cb" x="321.33" y="59.66" width="3.12" height="134.2"/>
    <rect class="uuid-998d775d-4358-45b8-bf69-19221cb5edfa" x="324.45" y="59.66" width="3.12" height="134.2"/>
    <rect class="uuid-998d775d-4358-45b8-bf69-19221cb5edfa" x="327.57" y="59.66" width="78.78" height="134.2"/>
  </g>
  <g class="uuid-af998493-6340-451e-bf72-e4a024b5b8d0">
    <rect class="uuid-b4f82316-ed7c-4df4-b292-c2554332eef7" x="131.85" y="0" width=".38" height="156.07"/>
    <rect class="uuid-b4f82316-ed7c-4df4-b292-c2554332eef7" x="132.23" y="0" width="1.08" height="156.07"/>
    <rect class="uuid-91092e0f-d498-4ce3-93b5-514e6e990015" x="133.32" y="0" width="1.08" height="156.07"/>
    <rect class="uuid-f46c42df-eae7-4db8-8b45-2f6a92d79b20" x="134.4" y="0" width="1.08" height="156.07"/>
    <rect class="uuid-cc1c97f6-4ba6-4f91-81a0-653e9391bdcc" x="135.48" y="0" width="1.08" height="156.07"/>
    <rect class="uuid-89153726-2722-48e1-926a-5bdf85d309f9" x="136.56" y="0" width="1.08" height="156.07"/>
    <rect class="uuid-bbba43d7-e4cc-4eb3-afcd-4bc716ca864e" x="137.64" y="0" width="1.08" height="156.07"/>
    <rect class="uuid-0b1bca2f-e8d0-4f8a-a32d-6eb693c0d510" x="138.72" y="0" width="1.08" height="156.07"/>
    <rect class="uuid-e2ae71f3-21fd-484d-a3b7-59feb4b271e0" x="139.81" y="0" width="1.08" height="156.07"/>
    <rect class="uuid-e2ae71f3-21fd-484d-a3b7-59feb4b271e0" x="140.89" y="0" width="1.08" height="156.07"/>
    <rect class="uuid-f6b1258c-8bc9-427e-90f6-74430f5fa829" x="141.97" y="0" width="1.08" height="156.07"/>
    <rect class="uuid-faf9cc1f-b9d7-4d27-936b-8e6f73706846" x="143.05" y="0" width="1.08" height="156.07"/>
    <rect class="uuid-faf9cc1f-b9d7-4d27-936b-8e6f73706846" x="144.13" y="0" width="1.08" height="156.07"/>
    <rect class="uuid-8203ef84-e2b9-4d25-af29-cd13035d5b52" x="145.22" y="0" width="1.08" height="156.07"/>
    <rect class="uuid-9ec2c291-69ef-4c41-ab5a-55d1e9da26a9" x="146.3" y="0" width="1.08" height="156.07"/>
    <rect class="uuid-9ec2c291-69ef-4c41-ab5a-55d1e9da26a9" x="147.38" y="0" width="1.08" height="156.07"/>
    <rect class="uuid-aa4802ed-be20-4727-9de8-8eb99b468388" x="148.46" y="0" width="1.08" height="156.07"/>
    <rect class="uuid-be2ba7bf-0c98-4d28-8f95-f0f41095fbc2" x="149.54" y="0" width="1.08" height="156.07"/>
    <rect class="uuid-0a6204c6-e6a6-4e5c-affe-fbfdcbe488b7" x="150.62" y="0" width="1.08" height="156.07"/>
    <rect class="uuid-0a6204c6-e6a6-4e5c-affe-fbfdcbe488b7" x="151.71" y="0" width="1.08" height="156.07"/>
    <rect class="uuid-ab2cc95a-9284-41e9-9c17-8bbab70c2109" x="152.79" y="0" width="1.08" height="156.07"/>
    <rect class="uuid-cbd09c58-ad4d-4b97-b312-ddd2083257a5" x="153.87" y="0" width="1.08" height="156.07"/>
    <rect class="uuid-49ab3d84-fbd2-45a8-a64b-bd1e1a30f55f" x="154.95" y="0" width="1.08" height="156.07"/>
    <rect class="uuid-9cadde1c-d561-479d-b1cf-401554bc68d1" x="156.03" y="0" width="1.08" height="156.07"/>
    <rect class="uuid-97d80289-f6bd-4da2-b622-d07f19ae349a" x="157.12" y="0" width="1.08" height="156.07"/>
    <rect class="uuid-64248b67-128e-45c4-bc9e-d179176770ae" x="158.2" y="0" width="1.08" height="156.07"/>
    <rect class="uuid-4fc43485-e0c2-463a-941e-28d48b78ca2d" x="159.28" y="0" width="1.08" height="156.07"/>
    <rect class="uuid-f29c3d96-edb4-434d-b79a-d7d287650e16" x="160.36" y="0" width="1.08" height="156.07"/>
    <rect class="uuid-d240f4e7-fd42-4854-a444-8bbe50e46b1d" x="161.44" y="0" width="1.08" height="156.07"/>
    <rect class="uuid-407211da-c56f-4112-9282-9609c3280b3c" x="162.52" y="0" width="1.08" height="156.07"/>
    <rect class="uuid-efef7a0c-5ea8-415e-ae01-6d29341a276e" x="163.61" y="0" width="1.08" height="156.07"/>
    <rect class="uuid-10860889-2a34-4391-8d76-247a07119ec6" x="164.69" y="0" width="1.08" height="156.07"/>
    <rect class="uuid-14d8f52b-e734-4ee5-8bd6-a7d094a26848" x="165.77" y="0" width="1.08" height="156.07"/>
    <rect class="uuid-62ff9bb4-ebfb-4b9a-8947-125b3db91a89" x="166.85" y="0" width="1.08" height="156.07"/>
    <rect class="uuid-473e00da-7209-49f0-8d21-acb618214fb1" x="167.93" y="0" width="1.08" height="156.07"/>
    <rect class="uuid-a87cf711-cd62-4e87-b367-6b6130218bca" x="169.01" y="0" width="1.08" height="156.07"/>
    <rect class="uuid-6f527c27-f13b-4c5d-ae37-2620df4bdf77" x="170.1" y="0" width="1.08" height="156.07"/>
    <rect class="uuid-81d5f993-4f66-4cbe-9b08-0f48992b9609" x="171.18" y="0" width="1.08" height="156.07"/>
    <rect class="uuid-fd250cd9-eedf-43ce-8e8d-2db1df15a8e4" x="172.26" y="0" width="1.08" height="156.07"/>
    <rect class="uuid-a5ba344c-e5f0-49be-b204-cb072e9d4274" x="173.34" y="0" width="1.08" height="156.07"/>
    <rect class="uuid-e0801426-1cc9-4a4c-b24e-5f1ba7d2a80e" x="174.42" y="0" width="1.08" height="156.07"/>
    <rect class="uuid-3e7e93b5-8746-4d0d-8610-60dbfcb21d56" x="175.51" y="0" width="1.08" height="156.07"/>
    <rect class="uuid-1296a604-aaf2-40aa-b580-f931ad85dc22" x="176.59" y="0" width="1.08" height="156.07"/>
    <rect class="uuid-05e9a5c4-0ccf-4cc9-b6bb-f997752b9a03" x="177.67" y="0" width="1.08" height="156.07"/>
    <rect class="uuid-2c22798b-6ee2-40e7-a07f-54f686ddf4f3" x="178.75" y="0" width="1.08" height="156.07"/>
    <rect class="uuid-141035d3-9d13-4d14-b0a2-a58693495ccb" x="179.83" y="0" width="1.08" height="156.07"/>
    <rect class="uuid-347f4f21-4005-426b-bd9f-96695b381670" x="180.91" y="0" width="1.08" height="156.07"/>
    <rect class="uuid-c432783b-615a-4646-8842-94165553699d" x="182" y="0" width="1.08" height="156.07"/>
    <rect class="uuid-a6fbc989-ef02-4a29-a3fc-319b3938110a" x="183.08" y="0" width="1.08" height="156.07"/>
    <rect class="uuid-602ee9f4-c6ea-4502-b17c-0b1217303797" x="184.16" y="0" width="1.08" height="156.07"/>
    <rect class="uuid-7197ad0d-e33f-4780-85c1-f9d5964110a8" x="185.24" y="0" width="1.08" height="156.07"/>
    <rect class="uuid-659a642a-34f6-4935-b289-a77148328e68" x="186.32" y="0" width="1.08" height="156.07"/>
    <rect class="uuid-659a642a-34f6-4935-b289-a77148328e68" x="187.4" y="0" width="1.08" height="156.07"/>
    <rect class="uuid-6c930d86-2d9d-404e-ae13-3db12b72f6d0" x="188.49" y="0" width="1.08" height="156.07"/>
    <rect class="uuid-29b83a5d-903b-4c71-b327-dc51e12e7ff9" x="189.57" y="0" width="1.08" height="156.07"/>
    <rect class="uuid-c0e24850-6f2f-428c-9243-d1604078fce0" x="190.65" y="0" width="1.08" height="156.07"/>
    <rect class="uuid-a788a848-89ec-4aba-8ca7-252345052c1e" x="191.73" y="0" width="1.08" height="156.07"/>
    <rect class="uuid-0bcb058d-465b-43f4-9c3b-7b5ccf539d49" x="192.81" y="0" width="1.08" height="156.07"/>
    <rect class="uuid-e929f7ff-84dc-4a5f-8c8e-43ed8752437a" x="193.9" y="0" width="1.08" height="156.07"/>
    <rect class="uuid-068e6ff6-313c-46b6-bda0-7c5892dab005" x="194.98" y="0" width="1.08" height="156.07"/>
    <rect class="uuid-adf424ad-6296-47a8-9cce-a1fe1ee12aa5" x="196.06" y="0" width="1.08" height="156.07"/>
    <rect class="uuid-336d32a9-980e-46c7-94a3-c3cab899e6b3" x="197.14" y="0" width="1.08" height="156.07"/>
    <rect class="uuid-7fdf9ce3-4be3-4b40-95a4-8354a0087360" x="198.22" y="0" width="1.08" height="156.07"/>
    <rect class="uuid-4354654c-8433-4421-8b2c-be572148f216" x="199.3" y="0" width="1.08" height="156.07"/>
    <rect class="uuid-fc80d61b-1af0-4539-83ff-4915c0cc2340" x="200.39" y="0" width="1.08" height="156.07"/>
    <rect class="uuid-fc80d61b-1af0-4539-83ff-4915c0cc2340" x="201.47" y="0" width="1.08" height="156.07"/>
    <rect class="uuid-8edc8473-d874-4657-a5bb-2a58761e87a9" x="202.55" y="0" width="1.08" height="156.07"/>
    <rect class="uuid-3c8b27fe-101a-4b0b-a0cb-4bbe6e4dfdb3" x="203.63" y="0" width="1.08" height="156.07"/>
    <rect class="uuid-98219c6c-f465-455c-b290-4d1a3e9499af" x="204.71" y="0" width="1.08" height="156.07"/>
    <rect class="uuid-37763401-d740-42bc-a03f-a75ec4a3da28" x="205.8" y="0" width="1.08" height="156.07"/>
    <rect class="uuid-685350b2-40ca-4362-b1f8-ca20999f626f" x="206.88" y="0" width="1.08" height="156.07"/>
    <rect class="uuid-808725f2-34d9-4fa7-a26f-ff14b890acce" x="207.96" y="0" width="1.08" height="156.07"/>
    <rect class="uuid-8b169c72-a996-4783-87fd-0c161d36bb6d" x="209.04" y="0" width="1.08" height="156.07"/>
    <rect class="uuid-4dca83ac-afcb-44d3-a767-f5fab653f2cd" x="210.12" y="0" width="1.08" height="156.07"/>
    <rect class="uuid-4c66c0f6-d586-4dbf-bb76-c36ccac980db" x="211.2" y="0" width="1.08" height="156.07"/>
    <rect class="uuid-4c66c0f6-d586-4dbf-bb76-c36ccac980db" x="212.29" y="0" width="1.08" height="156.07"/>
    <rect class="uuid-7c3f0528-5cf9-4647-9f72-6227b6b05ed9" x="213.37" y="0" width="1.08" height="156.07"/>
    <rect class="uuid-4036ceb6-4e99-46f9-b582-fb3b5c27f2d4" x="214.45" y="0" width="1.08" height="156.07"/>
    <rect class="uuid-42630f4b-1b15-436b-85d6-970bd074e553" x="215.53" y="0" width="1.08" height="156.07"/>
    <rect class="uuid-565bb014-99c2-464d-b7d5-5608a2f8854e" x="216.61" y="0" width="1.08" height="156.07"/>
    <rect class="uuid-46ece291-9170-4248-bf46-87d0a80209dd" x="217.69" y="0" width="1.08" height="156.07"/>
    <rect class="uuid-608d0237-8be6-42b6-b5df-a8745d0f55f8" x="218.78" y="0" width="1.08" height="156.07"/>
    <rect class="uuid-88df01fb-21cb-4e56-bdeb-68713429ee66" x="219.86" y="0" width="1.08" height="156.07"/>
    <rect class="uuid-1271081f-5eab-4ed8-ac00-70606f75474d" x="220.94" y="0" width="1.08" height="156.07"/>
    <rect class="uuid-c764a588-1aae-4c5d-b128-ca14ce160f07" x="222.02" y="0" width="1.08" height="156.07"/>
    <rect class="uuid-499b4b78-7d90-4b62-a829-a0a6cd87b530" x="223.1" y="0" width="1.08" height="156.07"/>
    <rect class="uuid-44cf25f9-f9b6-400d-b32f-f1410fd2925b" x="224.19" y="0" width="1.08" height="156.07"/>
    <rect class="uuid-16984722-82f7-4dfd-b0ae-d858e396836c" x="225.27" y="0" width="1.08" height="156.07"/>
    <rect class="uuid-70a0029a-107c-4635-980d-2cde56d26c38" x="226.35" y="0" width="1.08" height="156.07"/>
    <rect class="uuid-e027ab8f-c4ec-440c-a583-c3b76b25c1c2" x="227.43" y="0" width="1.08" height="156.07"/>
    <rect class="uuid-268fa919-96d0-4495-b51a-d824433b20b7" x="228.51" y="0" width="1.08" height="156.07"/>
    <rect class="uuid-7385f262-3428-4f92-9ccb-389c8b7a87c6" x="229.59" y="0" width="1.08" height="156.07"/>
    <rect class="uuid-49fc06a4-482e-4e4d-8770-0fa909835c7b" x="230.68" y="0" width="1.08" height="156.07"/>
    <rect class="uuid-6d62460a-df7d-4fc5-a61e-b6f0040f5309" x="231.76" y="0" width="1.08" height="156.07"/>
    <rect class="uuid-2d75d0fe-8b90-4406-a7fb-07e08fd122d4" x="232.84" y="0" width="1.08" height="156.07"/>
    <rect class="uuid-511896e0-ff34-420f-9b21-9ed03403332f" x="233.92" y="0" width="1.08" height="156.07"/>
    <rect class="uuid-5f280bd5-6500-49f6-9170-cdaccc27fd5f" x="235" y="0" width="1.08" height="156.07"/>
    <rect class="uuid-a4b97d29-5da0-4168-87b7-bac7919ccdae" x="236.09" y="0" width="1.08" height="156.07"/>
    <rect class="uuid-6b314968-ef28-466e-b660-012ffbdda94f" x="237.17" y="0" width="1.08" height="156.07"/>
    <rect class="uuid-8ccac1a6-f36e-466f-80c4-bf301149edb0" x="238.25" y="0" width="1.08" height="156.07"/>
    <rect class="uuid-ed649aa6-4c07-4b06-9115-255f45242b11" x="239.33" y="0" width="1.08" height="156.07"/>
    <rect class="uuid-3f0edad7-fbce-46f7-afdf-9951d0c2a8bb" x="240.41" y="0" width="1.08" height="156.07"/>
    <rect class="uuid-456767fc-ed59-477f-b991-984f510c9084" x="241.49" y="0" width="1.08" height="156.07"/>
    <rect class="uuid-348c3b46-3a9b-4b7b-8d6b-a389a13a6ee9" x="242.58" y="0" width="1.08" height="156.07"/>
    <rect class="uuid-248dd1d8-e025-4838-a924-a8efe0fe94cb" x="243.66" y="0" width="1.08" height="156.07"/>
    <rect class="uuid-998d775d-4358-45b8-bf69-19221cb5edfa" x="244.74" y="0" width="1.08" height="156.07"/>
    <rect class="uuid-998d775d-4358-45b8-bf69-19221cb5edfa" x="245.82" y="0" width="27.65" height="156.07"/>
  </g>
  <g class="uuid-c0c08216-f913-4277-bb66-f06055b38637">
    <rect class="uuid-b4f82316-ed7c-4df4-b292-c2554332eef7" x="64.96" y="30.19" width=".33" height="146.87"/>
    <rect class="uuid-b4f82316-ed7c-4df4-b292-c2554332eef7" x="65.3" y="30.19" width="2.11" height="146.87"/>
    <rect class="uuid-91092e0f-d498-4ce3-93b5-514e6e990015" x="67.41" y="30.19" width="2.11" height="146.87"/>
    <rect class="uuid-f46c42df-eae7-4db8-8b45-2f6a92d79b20" x="69.52" y="30.19" width="2.11" height="146.87"/>
    <rect class="uuid-cc1c97f6-4ba6-4f91-81a0-653e9391bdcc" x="71.63" y="30.19" width="2.11" height="146.87"/>
    <rect class="uuid-89153726-2722-48e1-926a-5bdf85d309f9" x="73.74" y="30.19" width="2.11" height="146.87"/>
    <rect class="uuid-bbba43d7-e4cc-4eb3-afcd-4bc716ca864e" x="75.84" y="30.19" width="2.11" height="146.87"/>
    <rect class="uuid-0b1bca2f-e8d0-4f8a-a32d-6eb693c0d510" x="77.95" y="30.19" width="2.11" height="146.87"/>
    <rect class="uuid-e2ae71f3-21fd-484d-a3b7-59feb4b271e0" x="80.06" y="30.19" width="2.11" height="146.87"/>
    <rect class="uuid-e2ae71f3-21fd-484d-a3b7-59feb4b271e0" x="82.17" y="30.19" width="2.11" height="146.87"/>
    <rect class="uuid-f6b1258c-8bc9-427e-90f6-74430f5fa829" x="84.28" y="30.19" width="2.11" height="146.87"/>
    <rect class="uuid-faf9cc1f-b9d7-4d27-936b-8e6f73706846" x="86.39" y="30.19" width="2.11" height="146.87"/>
    <rect class="uuid-faf9cc1f-b9d7-4d27-936b-8e6f73706846" x="88.5" y="30.19" width="2.11" height="146.87"/>
    <rect class="uuid-8203ef84-e2b9-4d25-af29-cd13035d5b52" x="90.61" y="30.19" width="2.11" height="146.87"/>
    <rect class="uuid-9ec2c291-69ef-4c41-ab5a-55d1e9da26a9" x="92.72" y="30.19" width="2.11" height="146.87"/>
    <rect class="uuid-9ec2c291-69ef-4c41-ab5a-55d1e9da26a9" x="94.83" y="30.19" width="2.11" height="146.87"/>
    <rect class="uuid-aa4802ed-be20-4727-9de8-8eb99b468388" x="96.94" y="30.19" width="2.11" height="146.87"/>
    <rect class="uuid-be2ba7bf-0c98-4d28-8f95-f0f41095fbc2" x="99.05" y="30.19" width="2.11" height="146.87"/>
    <rect class="uuid-0a6204c6-e6a6-4e5c-affe-fbfdcbe488b7" x="101.16" y="30.19" width="2.11" height="146.87"/>
    <rect class="uuid-0a6204c6-e6a6-4e5c-affe-fbfdcbe488b7" x="103.27" y="30.19" width="2.11" height="146.87"/>
    <rect class="uuid-ab2cc95a-9284-41e9-9c17-8bbab70c2109" x="105.38" y="30.19" width="2.11" height="146.87"/>
    <rect class="uuid-cbd09c58-ad4d-4b97-b312-ddd2083257a5" x="107.49" y="30.19" width="2.11" height="146.87"/>
    <rect class="uuid-49ab3d84-fbd2-45a8-a64b-bd1e1a30f55f" x="109.6" y="30.19" width="2.11" height="146.87"/>
    <rect class="uuid-9cadde1c-d561-479d-b1cf-401554bc68d1" x="111.71" y="30.19" width="2.11" height="146.87"/>
    <rect class="uuid-97d80289-f6bd-4da2-b622-d07f19ae349a" x="113.82" y="30.19" width="2.11" height="146.87"/>
    <rect class="uuid-64248b67-128e-45c4-bc9e-d179176770ae" x="115.93" y="30.19" width="2.11" height="146.87"/>
    <rect class="uuid-4fc43485-e0c2-463a-941e-28d48b78ca2d" x="118.04" y="30.19" width="2.11" height="146.87"/>
    <rect class="uuid-f29c3d96-edb4-434d-b79a-d7d287650e16" x="120.15" y="30.19" width="2.11" height="146.87"/>
    <rect class="uuid-d240f4e7-fd42-4854-a444-8bbe50e46b1d" x="122.26" y="30.19" width="2.11" height="146.87"/>
    <rect class="uuid-407211da-c56f-4112-9282-9609c3280b3c" x="124.37" y="30.19" width="2.11" height="146.87"/>
    <rect class="uuid-efef7a0c-5ea8-415e-ae01-6d29341a276e" x="126.48" y="30.19" width="2.11" height="146.87"/>
    <rect class="uuid-10860889-2a34-4391-8d76-247a07119ec6" x="128.59" y="30.19" width="2.11" height="146.87"/>
    <rect class="uuid-14d8f52b-e734-4ee5-8bd6-a7d094a26848" x="130.7" y="30.19" width="2.11" height="146.87"/>
    <rect class="uuid-62ff9bb4-ebfb-4b9a-8947-125b3db91a89" x="132.81" y="30.19" width="2.11" height="146.87"/>
    <rect class="uuid-473e00da-7209-49f0-8d21-acb618214fb1" x="134.92" y="30.19" width="2.11" height="146.87"/>
    <rect class="uuid-a87cf711-cd62-4e87-b367-6b6130218bca" x="137.03" y="30.19" width="2.11" height="146.87"/>
    <rect class="uuid-6f527c27-f13b-4c5d-ae37-2620df4bdf77" x="139.14" y="30.19" width="2.11" height="146.87"/>
    <rect class="uuid-81d5f993-4f66-4cbe-9b08-0f48992b9609" x="141.25" y="30.19" width="2.11" height="146.87"/>
    <rect class="uuid-fd250cd9-eedf-43ce-8e8d-2db1df15a8e4" x="143.36" y="30.19" width="2.11" height="146.87"/>
    <rect class="uuid-a5ba344c-e5f0-49be-b204-cb072e9d4274" x="145.47" y="30.19" width="2.11" height="146.87"/>
    <rect class="uuid-e0801426-1cc9-4a4c-b24e-5f1ba7d2a80e" x="147.58" y="30.19" width="2.11" height="146.87"/>
    <rect class="uuid-3e7e93b5-8746-4d0d-8610-60dbfcb21d56" x="149.69" y="30.19" width="2.11" height="146.87"/>
    <rect class="uuid-1296a604-aaf2-40aa-b580-f931ad85dc22" x="151.8" y="30.19" width="2.11" height="146.87"/>
    <rect class="uuid-05e9a5c4-0ccf-4cc9-b6bb-f997752b9a03" x="153.91" y="30.19" width="2.11" height="146.87"/>
    <rect class="uuid-2c22798b-6ee2-40e7-a07f-54f686ddf4f3" x="156.02" y="30.19" width="2.11" height="146.87"/>
    <rect class="uuid-141035d3-9d13-4d14-b0a2-a58693495ccb" x="158.13" y="30.19" width="2.11" height="146.87"/>
    <rect class="uuid-347f4f21-4005-426b-bd9f-96695b381670" x="160.24" y="30.19" width="2.11" height="146.87"/>
    <rect class="uuid-c432783b-615a-4646-8842-94165553699d" x="162.35" y="30.19" width="2.11" height="146.87"/>
    <rect class="uuid-a6fbc989-ef02-4a29-a3fc-319b3938110a" x="164.45" y="30.19" width="2.11" height="146.87"/>
    <rect class="uuid-602ee9f4-c6ea-4502-b17c-0b1217303797" x="166.56" y="30.19" width="2.11" height="146.87"/>
    <rect class="uuid-7197ad0d-e33f-4780-85c1-f9d5964110a8" x="168.67" y="30.19" width="2.11" height="146.87"/>
    <rect class="uuid-659a642a-34f6-4935-b289-a77148328e68" x="170.78" y="30.19" width="2.11" height="146.87"/>
    <rect class="uuid-659a642a-34f6-4935-b289-a77148328e68" x="172.89" y="30.19" width="2.11" height="146.87"/>
    <rect class="uuid-6c930d86-2d9d-404e-ae13-3db12b72f6d0" x="175" y="30.19" width="2.11" height="146.87"/>
    <rect class="uuid-29b83a5d-903b-4c71-b327-dc51e12e7ff9" x="177.11" y="30.19" width="2.11" height="146.87"/>
    <rect class="uuid-c0e24850-6f2f-428c-9243-d1604078fce0" x="179.22" y="30.19" width="2.11" height="146.87"/>
    <rect class="uuid-a788a848-89ec-4aba-8ca7-252345052c1e" x="181.33" y="30.19" width="2.11" height="146.87"/>
    <rect class="uuid-0bcb058d-465b-43f4-9c3b-7b5ccf539d49" x="183.44" y="30.19" width="2.11" height="146.87"/>
    <rect class="uuid-e929f7ff-84dc-4a5f-8c8e-43ed8752437a" x="185.55" y="30.19" width="2.11" height="146.87"/>
    <rect class="uuid-068e6ff6-313c-46b6-bda0-7c5892dab005" x="187.66" y="30.19" width="2.11" height="146.87"/>
    <rect class="uuid-adf424ad-6296-47a8-9cce-a1fe1ee12aa5" x="189.77" y="30.19" width="2.11" height="146.87"/>
    <rect class="uuid-336d32a9-980e-46c7-94a3-c3cab899e6b3" x="191.88" y="30.19" width="2.11" height="146.87"/>
    <rect class="uuid-7fdf9ce3-4be3-4b40-95a4-8354a0087360" x="193.99" y="30.19" width="2.11" height="146.87"/>
    <rect class="uuid-4354654c-8433-4421-8b2c-be572148f216" x="196.1" y="30.19" width="2.11" height="146.87"/>
    <rect class="uuid-fc80d61b-1af0-4539-83ff-4915c0cc2340" x="198.21" y="30.19" width="2.11" height="146.87"/>
    <rect class="uuid-fc80d61b-1af0-4539-83ff-4915c0cc2340" x="200.32" y="30.19" width="2.11" height="146.87"/>
    <rect class="uuid-8edc8473-d874-4657-a5bb-2a58761e87a9" x="202.43" y="30.19" width="2.11" height="146.87"/>
    <rect class="uuid-3c8b27fe-101a-4b0b-a0cb-4bbe6e4dfdb3" x="204.54" y="30.19" width="2.11" height="146.87"/>
    <rect class="uuid-98219c6c-f465-455c-b290-4d1a3e9499af" x="206.65" y="30.19" width="2.11" height="146.87"/>
    <rect class="uuid-37763401-d740-42bc-a03f-a75ec4a3da28" x="208.76" y="30.19" width="2.11" height="146.87"/>
    <rect class="uuid-685350b2-40ca-4362-b1f8-ca20999f626f" x="210.87" y="30.19" width="2.11" height="146.87"/>
    <rect class="uuid-808725f2-34d9-4fa7-a26f-ff14b890acce" x="212.98" y="30.19" width="2.11" height="146.87"/>
    <rect class="uuid-8b169c72-a996-4783-87fd-0c161d36bb6d" x="215.09" y="30.19" width="2.11" height="146.87"/>
    <rect class="uuid-4dca83ac-afcb-44d3-a767-f5fab653f2cd" x="217.2" y="30.19" width="2.11" height="146.87"/>
    <rect class="uuid-4c66c0f6-d586-4dbf-bb76-c36ccac980db" x="219.31" y="30.19" width="2.11" height="146.87"/>
    <rect class="uuid-4c66c0f6-d586-4dbf-bb76-c36ccac980db" x="221.42" y="30.19" width="2.11" height="146.87"/>
    <rect class="uuid-7c3f0528-5cf9-4647-9f72-6227b6b05ed9" x="223.53" y="30.19" width="2.11" height="146.87"/>
    <rect class="uuid-4036ceb6-4e99-46f9-b582-fb3b5c27f2d4" x="225.64" y="30.19" width="2.11" height="146.87"/>
    <rect class="uuid-42630f4b-1b15-436b-85d6-970bd074e553" x="227.75" y="30.19" width="2.11" height="146.87"/>
    <rect class="uuid-565bb014-99c2-464d-b7d5-5608a2f8854e" x="229.86" y="30.19" width="2.11" height="146.87"/>
    <rect class="uuid-46ece291-9170-4248-bf46-87d0a80209dd" x="231.97" y="30.19" width="2.11" height="146.87"/>
    <rect class="uuid-608d0237-8be6-42b6-b5df-a8745d0f55f8" x="234.08" y="30.19" width="2.11" height="146.87"/>
    <rect class="uuid-88df01fb-21cb-4e56-bdeb-68713429ee66" x="236.19" y="30.19" width="2.11" height="146.87"/>
    <rect class="uuid-1271081f-5eab-4ed8-ac00-70606f75474d" x="238.3" y="30.19" width="2.11" height="146.87"/>
    <rect class="uuid-c764a588-1aae-4c5d-b128-ca14ce160f07" x="240.41" y="30.19" width="2.11" height="146.87"/>
    <rect class="uuid-499b4b78-7d90-4b62-a829-a0a6cd87b530" x="242.52" y="30.19" width="2.11" height="146.87"/>
    <rect class="uuid-44cf25f9-f9b6-400d-b32f-f1410fd2925b" x="244.63" y="30.19" width="2.11" height="146.87"/>
    <rect class="uuid-16984722-82f7-4dfd-b0ae-d858e396836c" x="246.74" y="30.19" width="2.11" height="146.87"/>
    <rect class="uuid-70a0029a-107c-4635-980d-2cde56d26c38" x="248.85" y="30.19" width="2.11" height="146.87"/>
    <rect class="uuid-e027ab8f-c4ec-440c-a583-c3b76b25c1c2" x="250.96" y="30.19" width="2.11" height="146.87"/>
    <rect class="uuid-268fa919-96d0-4495-b51a-d824433b20b7" x="253.06" y="30.19" width="2.11" height="146.87"/>
    <rect class="uuid-7385f262-3428-4f92-9ccb-389c8b7a87c6" x="255.17" y="30.19" width="2.11" height="146.87"/>
    <rect class="uuid-49fc06a4-482e-4e4d-8770-0fa909835c7b" x="257.28" y="30.19" width="2.11" height="146.87"/>
    <rect class="uuid-6d62460a-df7d-4fc5-a61e-b6f0040f5309" x="259.39" y="30.19" width="2.11" height="146.87"/>
    <rect class="uuid-2d75d0fe-8b90-4406-a7fb-07e08fd122d4" x="261.5" y="30.19" width="2.11" height="146.87"/>
    <rect class="uuid-511896e0-ff34-420f-9b21-9ed03403332f" x="263.61" y="30.19" width="2.11" height="146.87"/>
    <rect class="uuid-5f280bd5-6500-49f6-9170-cdaccc27fd5f" x="265.72" y="30.19" width="2.11" height="146.87"/>
    <rect class="uuid-a4b97d29-5da0-4168-87b7-bac7919ccdae" x="267.83" y="30.19" width="2.11" height="146.87"/>
    <rect class="uuid-6b314968-ef28-466e-b660-012ffbdda94f" x="269.94" y="30.19" width="2.11" height="146.87"/>
    <rect class="uuid-8ccac1a6-f36e-466f-80c4-bf301149edb0" x="272.05" y="30.19" width="2.11" height="146.87"/>
    <rect class="uuid-ed649aa6-4c07-4b06-9115-255f45242b11" x="274.16" y="30.19" width="2.11" height="146.87"/>
    <rect class="uuid-3f0edad7-fbce-46f7-afdf-9951d0c2a8bb" x="276.27" y="30.19" width="2.11" height="146.87"/>
    <rect class="uuid-456767fc-ed59-477f-b991-984f510c9084" x="278.38" y="30.19" width="2.11" height="146.87"/>
    <rect class="uuid-348c3b46-3a9b-4b7b-8d6b-a389a13a6ee9" x="280.49" y="30.19" width="2.11" height="146.87"/>
    <rect class="uuid-248dd1d8-e025-4838-a924-a8efe0fe94cb" x="282.6" y="30.19" width="2.11" height="146.87"/>
    <rect class="uuid-998d775d-4358-45b8-bf69-19221cb5edfa" x="284.71" y="30.19" width="2.11" height="146.87"/>
    <rect class="uuid-998d775d-4358-45b8-bf69-19221cb5edfa" x="286.82" y="30.19" width="53.73" height="146.87"/>
  </g>
</svg>